# xmcd CD database file
# Copyright (C) 1997 Ti Kan
# 
# Track frame offsets:
#     150
#     16100
#     32345
#     47597
#     57125
#     66317
#     78727
#     94115
#     107667
#     122130
#     134465
#     146395
# 
# Disc length: 2156 seconds
# 
# Revision: 1
# Processed by: cddbd v1.4b41PL1 Copyright (c) Steve Scherf et al.
# Submitted via: DiscPlay 4.0.4
# 
DISCID=9b086a0c
DTITLE=Homesick Mac and Sam Mitchell - two long from home
DYEAR=1900
DGENRE=
TTITLE0=Sitting on top of the world
TTITLE1=I'm ready
TTITLE2=Statesboro blues
TTITLE3=Busy bootin'
TTITLE4=If you haven't any hay
TTITLE5=Ants in my pants
TTITLE6=Mean on me
TTITLE7=What you want me to do
TTITLE8=Come on in my kitchen
TTITLE9=C.C. rider
TTITLE10=Thibodeaux
TTITLE11=Hurray, hurray
EXTD=
EXTT0=
EXTT1=
EXTT2=
EXTT3=
EXTT4=
EXTT5=
EXTT6=
EXTT7=
EXTT8=
EXTT9=
EXTT10=
EXTT11=This woman is killing me\n
PLAYORDER=
